<svg aria-hidden="true" style="position: absolute; width: 0; height: 0; overflow: hidden;" version="1.1" xmlns="http://www.w3.org/2000/svg" xmlns:xlink="http://www.w3.org/1999/xlink">
<defs>
<symbol id="icon-map-marker" viewBox="0 0 23 32">
<path fill="#878d9d" style="fill: var(--color1, #878d9d)" d="M11.556 32c0 0-11.556-10.719-11.556-19.556s5.174-12.444 11.556-12.444c6.382 0 11.556 3.608 11.556 12.444s-11.556 19.556-11.556 19.556zM11.556 17.778c3.436 0 6.222-2.786 6.222-6.222s-2.786-6.222-6.222-6.222c-3.436 0-6.222 2.786-6.222 6.222s2.786 6.222 6.222 6.222z"></path>
</symbol>
<symbol id="icon-bookmark" viewBox="0 0 25 32">
<path fill="none" stroke="#70778b" style="stroke: var(--color1, #70778b)" stroke-linejoin="miter" stroke-linecap="butt" stroke-miterlimit="4" stroke-width="2.7826" d="M1.391 5.565c0-2.049 1.661-3.71 3.71-3.71h14.841c2.049 0 3.71 1.661 3.71 3.71v22.252c0 1.622-1.935 2.463-3.121 1.356l-6.743-6.296c-0.713-0.665-1.819-0.665-2.532 0l-6.743 6.296c-1.186 1.107-3.121 0.266-3.121-1.356v-22.252z"></path>
</symbol>
<symbol id="icon-share" viewBox="0 0 30 32">
<path fill="#70778b" style="fill: var(--color1, #70778b)" d="M21.664 23.855l-11.408-6.667c0.080-0.37 0.144-0.739 0.144-1.124s-0.064-0.755-0.144-1.125l11.28-6.602c0.864 0.803 2 1.301 3.264 1.301 2.656 0 4.8-2.153 4.8-4.819s-2.144-4.819-4.8-4.819c-2.656 0-4.8 2.153-4.8 4.819 0 0.386 0.064 0.755 0.144 1.125l-11.28 6.602c-0.864-0.803-2-1.301-3.264-1.301-2.656 0-4.8 2.153-4.8 4.819s2.144 4.819 4.8 4.819c1.264 0 2.4-0.498 3.264-1.301l11.392 6.683c-0.080 0.337-0.128 0.691-0.128 1.044 0 2.586 2.096 4.691 4.672 4.691s4.672-2.104 4.672-4.691c0-2.586-2.096-4.691-4.672-4.691-1.216 0-2.304 0.482-3.136 1.237z"></path>
</symbol>
</defs>
</svg>